<svg width="296" height="793" viewBox="0 0 296 793" fill="none" xmlns="http://www.w3.org/2000/svg">
<path d="M7.36163 403.008C7.36163 403.008 -6.8695 468.988 12.5366 467.695C31.9427 466.401 22.8865 406.889 22.8865 406.889L7.36163 403.008Z" fill="#FFC9C9"/>
<path d="M84.986 717.386L94.042 765.254L114.742 762.667L108.273 710.917L84.986 717.386Z" fill="#FFC9C9"/>
<path d="M189.779 670.811L194.954 705.742H222.122L216.947 673.399L189.779 670.811Z" fill="#FFC9C9"/>
<path d="M64.2861 370.664C64.2861 370.664 42.2925 413.358 50.055 519.444C57.8174 625.531 57.8174 726.442 57.8174 726.442L113.448 722.561L128.973 458.639L189.779 687.63L229.885 683.749L219.535 459.932L187.191 352.552L64.2861 370.664Z" fill="#2F2E41"/>
<path d="M101.804 743.261C101.804 743.261 105.686 731.617 99.2169 731.617H84.9858C84.9858 731.617 69.4609 760.079 60.4048 762.667C51.3486 765.254 22.8864 789.835 50.0549 792.423C77.2234 795.01 118.623 780.779 118.623 775.604C118.623 770.429 114.742 748.436 114.742 748.436L101.804 743.261Z" fill="#F8F8F8"/>
<path d="M215.653 697.98C215.653 697.98 191.871 691.402 193.412 695.338C194.954 699.274 189.779 710.917 189.779 710.917C189.779 710.917 176.841 784.66 215.653 778.192C254.465 771.723 226.003 716.092 226.003 716.092L220.256 694.083L215.653 697.98Z" fill="#F8F8F8"/>
<path d="M106.979 91.2169C128.415 91.2169 145.792 73.8401 145.792 52.4047C145.792 30.9694 128.415 13.5926 106.979 13.5926C85.544 13.5926 68.1672 30.9694 68.1672 52.4047C68.1672 73.8401 85.544 91.2169 106.979 91.2169Z" fill="#FFC9C9"/>
<path d="M81.1047 73.1046C81.1047 73.1046 87.5734 110.623 83.6922 118.385C79.811 126.148 114.742 141.673 114.742 141.673L132.854 97.6856V73.1046L81.1047 73.1046Z" fill="#FFC9C9"/>
<path d="M101.804 117.092C101.804 117.092 90.0275 118.824 84.9192 110.195C79.8109 101.567 68.1673 170.135 68.1673 170.135C68.1673 170.135 73.3422 260.697 66.8735 281.396C60.4048 302.096 61.6986 309.859 64.2861 313.74C66.8735 317.621 74.636 312.446 68.1673 322.796C61.6986 333.146 61.6986 326.677 61.6986 337.027C61.6986 347.377 59.1111 384.895 59.1111 384.895L198.835 374.545L132.854 91.2169C132.854 91.2169 110.861 118.385 101.804 117.092Z" fill="#3F3D56"/>
<path d="M156.141 105.448C156.141 105.448 209.185 113.21 211.772 124.854C214.36 136.498 266.109 459.932 238.941 476.751C211.772 493.569 123.798 506.507 119.917 489.688C116.036 472.87 95.3358 130.029 132.854 91.2169L156.141 105.448Z" fill="#F8F8F8"/>
<path opacity="0.1" d="M189.937 348.607C189.231 348.607 153.362 344.835 153.362 344.835C153.362 344.835 131.643 387.542 133.067 397.933C134.491 408.325 137.07 417.523 145.806 415.894C154.542 414.264 192.823 417.176 192.823 417.176L189.937 348.607Z" fill="black"/>
<path d="M194.247 345.772C193.542 345.772 145.386 343.5 145.386 343.5C145.386 343.5 135.966 384.72 137.377 395.098C138.789 405.477 141.393 414.688 150.116 413.059C158.84 411.429 197.134 414.341 197.134 414.341L194.247 345.772Z" fill="#F5F5F5"/>
<path d="M123 424.244L252 409V506.675L126 532L123 424.244Z" fill="#FFCBA5"/>
<path d="M126 429.244L255 414V511.675L126 532V429.244Z" fill="#FFE3CF"/>
<path d="M84.9105 107.389L34.5301 157.197L52.6424 318.915C52.6424 318.915 16.4178 510.388 37.1176 510.388C57.8174 510.388 55.2299 512.975 59.1111 498.744C62.9923 484.513 84.9105 107.389 84.9105 107.389Z" fill="#F8F8F8"/>
<path d="M47.4675 153.316L34.5301 157.197C34.5301 157.197 22.8864 166.254 24.1802 185.66C25.4739 205.066 22.8864 260.697 22.8864 260.697C22.8864 260.697 15.124 272.34 19.0052 286.571L0.892944 410.77L40.9988 417.239L55.2299 352.552L47.4675 153.316Z" fill="#F8F8F8"/>
<path d="M207.891 359.021C207.891 359.021 192.366 440.526 207.891 435.351C223.416 430.176 242.822 373.252 229.884 364.196C216.947 355.139 207.891 359.021 207.891 359.021Z" fill="#FFC9C9"/>
<path d="M68.0754 56.9562C68.0754 56.9562 64.113 51.0126 65.637 44.6118C66.5476 40.9778 66.9072 37.2275 66.7037 33.4867C66.7037 33.4867 69.9042 23.1235 73.1046 17.3323C76.3049 11.5411 74.781 9.10268 84.8394 7.27388C94.8978 5.44508 90.7829 -7.6613 117.3 6.51188C118.195 7.76103 119.44 8.71717 120.877 9.25963C122.315 9.8021 123.881 9.90658 125.378 9.55988C130.864 8.49308 132.845 16.1131 132.845 16.1131C132.845 16.1131 136.503 13.9795 137.874 17.0275C139.246 20.0755 149.026 15.1981 149.026 35.7721C149.026 56.3461 137.897 74.7239 137.897 74.7239C137.897 74.7239 138.713 40.116 120.577 36.6109C102.442 33.1057 82.9344 22.8949 78.21 36.0013C75.6597 43.3572 72.2585 50.3899 68.0754 56.9562Z" fill="#2F2E41"/>
<path d="M189.779 117.092C189.779 117.092 219.535 111.917 226.003 150.729C232.472 189.541 249.291 265.871 249.291 265.871L244.671 382.34L201.422 368.077L202.716 278.809L180.722 145.554L189.779 117.092Z" fill="#F8F8F8"/>
<path opacity="0.15" d="M178.782 169.488L195.6 279.456L191.719 372.605L209.832 282.043L178.782 169.488Z" fill="black"/>
</svg>
