<svg width="413" height="286" viewBox="0 0 413 286" fill="none" xmlns="http://www.w3.org/2000/svg">
<g clip-path="url(#clip0)">
<path d="M295.294 195.561C295.294 221.444 279.906 230.481 260.923 230.481C241.941 230.481 226.552 221.444 226.552 195.561C226.552 169.679 260.923 136.752 260.923 136.752C260.923 136.752 295.294 169.679 295.294 195.561Z" fill="#504CFF"/>
<path d="M260.023 204.86L274.673 178.062L260.078 201.462L260.236 191.723L270.333 172.334L260.278 189.145L260.563 171.627L271.375 156.192L260.608 168.873L260.785 136.752L259.716 177.453L248.768 160.696L259.584 180.888L258.559 200.451L258.529 199.932L245.857 182.228L258.49 201.767L258.362 204.213L258.339 204.25L258.35 204.451L255.751 230.558H259.223L259.64 228.449L272.242 208.958L259.671 226.522L260.023 204.86Z" fill="#3F3D56"/>
<path d="M413 112.34C413 161.782 383.605 179.046 347.343 179.046C311.082 179.046 281.687 161.782 281.687 112.34C281.687 62.8981 347.343 0 347.343 0C347.343 0 413 62.8981 413 112.34Z" fill="#F2F2F2"/>
<path d="M344.951 171.482L345.624 130.104L373.609 78.9128L345.729 123.613L346.032 105.007L365.318 67.9711L346.112 100.084V100.084L346.655 66.621L367.308 37.1355L346.741 61.3591L347.081 0L344.946 81.2283L345.121 77.8774L324.123 45.74L344.784 84.3097L342.828 121.682L342.77 120.69L318.563 86.8703L342.697 124.194L342.452 128.868L342.408 128.939L342.428 129.322L337.464 224.138H344.096L344.892 175.164L368.966 137.932L344.951 171.482Z" fill="#3F3D56"/>
<path d="M410.305 215.86C410.305 230.617 314.566 286 202.647 286C90.7282 286 0 257.337 0 242.58C0 227.823 88.5013 245.363 200.42 245.363C312.339 245.363 410.305 201.103 410.305 215.86Z" fill="#3F3D56"/>
<path opacity="0.1" d="M410.305 215.86C410.305 230.617 314.566 286 202.647 286C90.7282 286 0 257.337 0 242.58C0 227.823 88.5013 245.363 200.42 245.363C312.339 245.363 410.305 201.103 410.305 215.86Z" fill="black"/>
<path d="M410.305 215.86C410.305 230.617 314.566 269.3 202.647 269.3C90.7282 269.3 0 257.337 0 242.58C0 227.823 88.5013 228.663 200.42 228.663C312.339 228.663 410.305 201.103 410.305 215.86Z" fill="#3F3D56"/>
<path opacity="0.1" d="M204.915 252.039C252.441 252.039 290.969 249.059 290.969 245.384C290.969 241.708 252.441 238.728 204.915 238.728C157.388 238.728 118.86 241.708 118.86 245.384C118.86 249.059 157.388 252.039 204.915 252.039Z" fill="black"/>
<path d="M136.742 112.016C136.742 112.016 161.935 112.483 157.27 116.914C152.604 121.346 135.109 116.914 135.109 116.914L136.742 112.016Z" fill="#A0616A"/>
<path d="M84.2514 58.1875C84.2514 58.1875 94.4231 56.3712 97.9598 64.5818C101.497 72.7924 108.76 96.2084 108.76 96.2084C108.76 96.2084 128.198 109.074 131.734 108.651C135.269 108.228 141.313 109.091 140.205 112.948C139.096 116.804 139.588 121.178 137.036 121.714C134.483 122.25 130.424 117.133 127.317 119.598C124.211 122.062 96.5233 113.061 94.7458 111.196C92.9683 109.331 78.1964 68.9453 78.1964 68.9453C78.1964 68.9453 78.7873 58.0559 84.2514 58.1875Z" fill="#504CFF"/>
<path d="M106.067 231.555L107.233 241.351L97.4361 243.917L91.8375 241.351V232.721L106.067 231.555Z" fill="#A0616A"/>
<path d="M79.7074 237.853L80.8737 247.649L71.0765 250.215L65.4779 247.649V239.019L79.7074 237.853Z" fill="#A0616A"/>
<path d="M107 124.494L111.432 140.588L117.964 173.243C117.964 173.243 119.83 181.173 116.098 190.737C112.365 200.3 105.6 231.555 107 233.421C108.4 235.287 91.1376 236.686 91.3709 234.82C91.6041 232.954 93.9368 207.297 93.9368 207.297C93.9368 207.297 97.2026 184.672 98.8355 181.873C100.468 179.074 91.3709 172.077 91.3709 172.077C91.3709 172.077 89.0382 198.9 85.5391 201.233C82.0401 203.565 82.5066 239.718 80.8737 240.185C79.2408 240.651 67.344 242.517 65.9444 240.185C64.5448 237.852 65.9444 198.9 65.9444 198.9C65.9444 198.9 73.8756 169.278 72.2427 165.079C70.6098 160.881 71.5429 142.921 71.5429 142.921C71.5429 142.921 65.4779 129.159 68.7437 121.929L107 124.494Z" fill="#2F2E41"/>
<path d="M106.3 34.928C106.3 34.928 96.5029 47.0569 96.9694 52.4215C97.436 57.7862 81.5736 42.6252 81.5736 42.6252C81.5736 42.6252 93.0038 27.2309 93.0038 23.9654C93.0038 20.7 106.3 34.928 106.3 34.928Z" fill="#A0616A"/>
<path d="M106.184 39.4761C114.687 39.4761 121.58 32.5838 121.58 24.0818C121.58 15.5798 114.687 8.6875 106.184 8.6875C97.6808 8.6875 90.7878 15.5798 90.7878 24.0818C90.7878 32.5838 97.6808 39.4761 106.184 39.4761Z" fill="#A0616A"/>
<path d="M67.3838 115.769C66.6863 118.368 65.8209 121.313 65.9445 123.795C66.0238 125.402 70.2903 126.457 76.1897 127.147C81.6599 127.788 88.5344 128.115 94.7837 128.283C101.346 128.46 107.212 128.46 110.033 128.46C118.43 128.46 111.665 123.095 108.4 120.53C105.134 117.964 105.834 81.5775 106.067 76.9126C106.3 72.2476 103.968 58.7193 103.968 56.1536C103.968 53.5879 98.4787 46.8914 98.4787 46.8914C98.4787 46.8914 97.2027 50.5557 92.0708 45.6575C86.9388 40.7594 80.174 39.3599 80.174 39.3599C75.042 41.2258 66.411 61.7516 65.9445 65.2503C65.7555 66.6707 65.9118 73.9457 66.2291 82.2516C66.6886 94.3921 67.4911 108.744 68.0439 110.267C68.4801 111.468 67.9973 113.483 67.3838 115.769Z" fill="#504CFF"/>
<path d="M92.3039 129.393L93.9367 135.224L87.6384 141.755L85.5391 132.658L92.3039 129.393Z" fill="#A0616A"/>
<path d="M94.4033 238.785C94.4033 238.785 99.302 244.383 103.034 240.651C106.767 236.919 106.533 234.587 107.233 234.587C107.933 234.587 118.43 243.917 118.43 243.917C118.43 243.917 136.392 248.115 126.595 251.147C116.797 254.18 89.0381 252.08 89.0381 251.147C89.0381 250.215 88.3383 237.852 90.9043 237.852L94.4033 238.785Z" fill="#2F2E41"/>
<path d="M68.0439 245.083C68.0439 245.083 72.9426 250.681 76.6749 246.949C80.4073 243.217 80.174 240.885 80.8738 240.885C81.5736 240.885 92.0708 250.215 92.0708 250.215C92.0708 250.215 110.033 254.413 100.235 257.445C90.4379 260.478 62.6787 258.378 62.6787 257.445C62.6787 256.512 61.9789 244.15 64.5449 244.15L68.0439 245.083Z" fill="#2F2E41"/>
<path d="M88.8982 36.3703C88.4009 36.6916 87.7534 37.0172 87.2554 36.6969C85.404 32.0798 84.02 27.2888 83.1245 22.3956C82.81 20.6769 82.5918 18.7662 83.5467 17.3029C83.9233 16.7258 84.4655 16.2539 84.7414 15.6224C85.1592 14.666 84.8842 13.559 85.023 12.5247C85.3137 10.3578 87.3623 8.8464 89.4224 8.1134C91.4824 7.3804 93.7198 7.15303 95.6834 6.19119C97.5479 5.2779 99.0412 3.76326 100.77 2.61387C102.499 1.46447 104.714 0.678593 106.639 1.45527C108.342 2.14236 109.403 3.87836 111.013 4.76228C112.106 5.36211 113.374 5.52903 114.593 5.78651C117.983 6.50556 121.165 7.98386 123.901 10.1102C124.566 10.5849 125.14 11.1765 125.594 11.8562C127.66 15.2573 123.961 19.8813 125.593 23.5107L122.065 20.727C121.123 19.9029 120.06 19.2276 118.914 18.7246C117.745 18.2819 116.361 18.2285 115.3 18.8878C113.81 19.8131 113.406 21.7462 112.886 23.4209C112.365 25.0955 111.214 26.9526 109.461 26.9096C107.077 26.8513 106.243 23.524 104.103 22.4706C102.708 21.7839 100.952 22.2362 99.763 23.2377C98.5739 24.2392 97.8603 25.6923 97.337 27.1561C97.0099 28.0709 96.7031 29.1021 96.1222 29.8951C95.4816 30.7697 94.6621 30.84 93.9779 31.4931C92.1967 33.1932 91.1016 34.947 88.8982 36.3703Z" fill="#2F2E41"/>
<path opacity="0.1" d="M67.3837 115.769C70.2832 119.974 73.5514 124.313 76.1896 127.147C81.6598 127.788 88.5343 128.115 94.7836 128.283C93.6672 126.769 92.2712 125.483 90.6711 124.495C87.6386 122.629 80.4072 100.47 80.4072 100.47C80.4072 100.47 89.2715 77.6121 91.6042 68.982C93.9369 60.3519 84.8393 55.4537 84.8393 55.4537C80.6405 51.955 73.4091 60.1186 73.4091 60.1186C73.4091 60.1186 69.7187 71.2491 66.229 82.2514C66.6885 94.3919 67.491 108.744 68.0439 110.267C68.4801 111.468 67.9972 113.483 67.3837 115.769Z" fill="black"/>
<path d="M84.1394 53.5875C84.1394 53.5875 93.2369 58.4857 90.9042 67.1158C88.5715 75.7459 79.7073 98.6041 79.7073 98.6041C79.7073 98.6041 86.9387 120.763 89.9712 122.629C93.0037 124.495 97.2025 128.926 93.9368 131.259C90.671 133.591 88.3383 137.323 86.0056 136.157C83.6729 134.991 83.6729 128.46 79.7073 128.46C75.7417 128.46 59.646 104.202 59.4128 101.636C59.1795 99.0706 72.7092 58.2524 72.7092 58.2524C72.7092 58.2524 79.9405 50.0888 84.1394 53.5875Z" fill="#504CFF"/>
<path d="M273.312 117.341L270.688 114.717C269.157 113.186 267.081 112.326 264.916 112.326C262.751 112.326 260.675 113.186 259.145 114.717L208.243 165.613L157.341 114.717C155.81 113.186 153.734 112.326 151.569 112.326C149.405 112.326 147.329 113.186 145.798 114.717L143.174 117.341C142.416 118.098 141.814 118.998 141.404 119.988C140.994 120.978 140.783 122.04 140.783 123.111C140.783 124.183 140.994 125.244 141.404 126.235C141.814 127.225 142.416 128.124 143.174 128.882L194.076 179.779L143.174 230.676C142.416 231.434 141.814 232.333 141.404 233.324C140.994 234.314 140.783 235.375 140.783 236.447C140.783 237.519 140.994 238.58 141.404 239.57C141.814 240.56 142.416 241.46 143.174 242.218L145.798 244.842C147.329 246.372 149.405 247.232 151.569 247.232C153.734 247.232 155.81 246.372 157.341 244.842L208.243 193.945L259.145 244.842C260.675 246.372 262.751 247.232 264.916 247.232C267.081 247.232 269.157 246.372 270.688 244.842L273.312 242.218C274.842 240.687 275.702 238.611 275.702 236.447C275.702 234.282 274.842 232.206 273.312 230.676L222.41 179.779L273.312 128.882C274.842 127.352 275.702 125.276 275.702 123.111C275.702 120.947 274.842 118.871 273.312 117.341Z" fill="#FF6584"/>
<path opacity="0.1" d="M141.357 233.443L190.747 184.058L190.272 183.583L143.174 230.676C142.385 231.464 141.766 232.406 141.357 233.443Z" fill="black"/>
<path opacity="0.1" d="M142.47 118.996C144 117.465 146.077 116.605 148.241 116.605C150.406 116.605 152.482 117.465 154.013 118.996L204.915 169.892L255.817 118.996C257.347 117.465 259.423 116.605 261.588 116.605C263.753 116.605 265.829 117.465 267.359 118.996L269.984 121.62C271.11 122.746 271.881 124.176 272.204 125.735C272.527 127.294 272.387 128.914 271.8 130.394L273.312 128.883C274.07 128.125 274.671 127.225 275.081 126.235C275.491 125.245 275.702 124.184 275.702 123.112C275.702 122.04 275.491 120.979 275.081 119.989C274.671 118.999 274.07 118.099 273.312 117.341L270.688 114.717C269.157 113.187 267.081 112.327 264.916 112.327C262.751 112.327 260.675 113.187 259.145 114.717L208.243 165.614L157.341 114.717C155.81 113.187 153.734 112.327 151.569 112.327C149.405 112.327 147.329 113.187 145.798 114.717L143.174 117.341C142.385 118.129 141.766 119.071 141.357 120.108L142.47 118.996Z" fill="black"/>
<path opacity="0.1" d="M222.885 180.255L219.082 184.058L269.984 234.955C271.11 236.081 271.881 237.511 272.204 239.071C272.527 240.63 272.387 242.249 271.8 243.729L273.312 242.218C274.07 241.46 274.671 240.56 275.081 239.57C275.491 238.58 275.702 237.519 275.702 236.447C275.702 235.375 275.491 234.314 275.081 233.324C274.671 232.334 274.07 231.434 273.312 230.676L222.885 180.255Z" fill="black"/>
<path d="M59.2705 214.19C59.2705 235.687 46.4899 243.193 30.7243 243.193C14.9587 243.193 2.1781 235.687 2.1781 214.19C2.1781 192.694 30.7243 165.347 30.7243 165.347C30.7243 165.347 59.2705 192.694 59.2705 214.19Z" fill="#504CFF"/>
<path d="M29.9767 221.914L42.144 199.657L30.0226 219.092L30.1541 211.002L38.5396 194.9L30.1889 208.861L30.4252 194.313L39.4045 181.493L30.4623 192.025L30.6099 165.347L29.7216 199.151L20.6288 185.234L29.6115 202.003L28.7611 218.252L28.7358 217.821L18.2113 203.117L28.7037 219.344L28.5974 221.377L28.5783 221.407L28.5871 221.574L26.4289 243.257H29.3125L29.6585 241.505L40.1253 225.317L29.6845 239.904L29.9767 221.914Z" fill="#3F3D56"/>
</g>
<defs>
<clipPath id="clip0">
<rect width="413" height="286" fill="white"/>
</clipPath>
</defs>
</svg>
