<svg width="309" height="318" viewBox="0 0 309 318" fill="none" xmlns="http://www.w3.org/2000/svg">
<g clip-path="url(#clip0)">
<path d="M228.641 147.877C234.171 148.432 239.717 147.17 245.052 145.616C255.631 142.535 266.608 137.64 272.092 128.083C274.094 124.593 275.231 120.685 276.351 116.82C278.61 109.017 280.885 101.124 281.248 93.0088C281.638 84.0806 279.703 75.2041 275.632 67.2484C275.035 66.0465 274.022 65.1019 272.781 64.5894C270.622 63.7403 269.434 64.9003 268.491 66.1089C262.771 73.4404 263.364 83.6463 262.886 92.933C262.405 102.242 260.581 111.432 257.471 120.219C256.151 123.947 254.411 127.827 251.058 129.925C249.005 131.21 246.561 131.681 244.18 132.128C240.619 132.797 236.732 133.421 233.54 131.708C230.272 129.954 228.11 125.408 224.338 124.653C220.606 123.905 215.513 127.815 213.847 131.109C209.335 140.03 221.239 147.133 228.641 147.877Z" fill="#FFD180"/>
<g opacity="0.1">
<path opacity="0.1" d="M251.058 129.925C249.005 131.21 246.561 131.681 244.18 132.128C241.734 132.588 239.139 133.007 236.716 132.681C239.759 133.949 243.321 133.394 246.612 132.776C248.993 132.329 251.437 131.858 253.49 130.573C256.843 128.475 258.583 124.594 259.903 120.866C263.013 112.079 264.837 102.889 265.318 93.5804C265.795 84.2937 265.203 74.0878 270.924 66.7563C271.586 65.9071 272.377 65.0973 273.534 64.9762C273.294 64.8261 273.043 64.6966 272.782 64.5893C270.622 63.7402 269.434 64.9001 268.492 66.1088C262.771 73.4403 263.363 83.6462 262.886 92.9329C262.405 102.242 260.581 111.432 257.471 120.219C256.151 123.947 254.411 127.827 251.058 129.925Z" fill="black"/>
<path opacity="0.1" d="M216.279 131.756C217.819 128.711 222.285 125.149 225.899 125.216C225.408 124.957 224.882 124.767 224.338 124.653C220.606 123.905 215.513 127.815 213.847 131.109C209.638 139.43 219.711 146.167 227.092 147.639C220.158 145.358 212.52 139.19 216.279 131.756Z" fill="black"/>
</g>
<path opacity="0.1" d="M246.261 98.3325L182.057 66.3525L172.799 84.9378L237.004 116.918L246.261 98.3325Z" fill="black"/>
<path d="M246.261 98.3325L182.057 66.3525L173.641 83.2482L237.845 115.228L246.261 98.3325Z" fill="#504CFF"/>
<path d="M223.155 88.3081C229.41 88.3081 234.481 83.2376 234.481 76.9827C234.481 70.7279 229.41 65.6573 223.155 65.6573C216.9 65.6573 211.83 70.7279 211.83 76.9827C211.83 83.2376 216.9 88.3081 223.155 88.3081Z" fill="#504CFF"/>
<path d="M214.552 17.9274C214.552 17.9274 234.161 23.2433 241.3 31.2508C241.3 31.2508 252.868 21.433 258.218 24.0977C263.567 26.7623 255.58 47.266 255.58 47.266L248.501 79.3504C248.501 79.3504 252.183 156.856 202.313 172.078C152.442 187.299 116.71 124.988 128.257 101.806C139.804 78.6245 174.486 35.807 174.486 35.807C174.486 35.807 204.727 1.90552 210.07 0.115532C215.413 -1.67445 214.552 17.9274 214.552 17.9274Z" fill="#FFD180"/>
<g opacity="0.1">
<path opacity="0.1" d="M244.377 118.891C247.416 105.938 248.801 92.6519 248.501 79.3505L247.383 84.417C247.651 95.9839 246.642 107.545 244.377 118.891Z" fill="white"/>
<path opacity="0.1" d="M133.845 98.5945C145.392 75.4126 173.368 40.8736 173.368 40.8736C173.368 40.8736 203.609 6.97207 208.952 5.1821C214.295 3.39207 213.434 22.994 213.434 22.994C213.434 22.994 233.043 28.3098 240.183 36.3174C240.183 36.3174 251.75 26.4996 257.1 29.1642C259.176 30.1985 259.24 33.9223 258.545 38.0895C260.092 32.2588 261.125 25.5456 258.218 24.0976C252.868 21.4331 241.301 31.2509 241.301 31.2509C234.161 23.2433 214.552 17.9274 214.552 17.9274C214.552 17.9274 215.413 -1.67449 210.07 0.115539C204.727 1.90551 174.486 35.8071 174.486 35.8071C174.486 35.8071 146.51 70.346 134.962 93.5279C133.919 95.6222 133.513 99.2594 133.845 98.5945Z" fill="white"/>
</g>
<path d="M233.781 70.4386C235.981 70.4386 237.765 68.6547 237.765 66.4542C237.765 64.2537 235.981 62.4698 233.781 62.4698C231.58 62.4698 229.796 64.2537 229.796 66.4542C229.796 68.6547 231.58 70.4386 233.781 70.4386Z" fill="#58555D"/>
<path d="M192.766 50.0094C194.967 50.0094 196.75 48.2255 196.75 46.025C196.75 43.8245 194.967 42.0406 192.766 42.0406C190.566 42.0406 188.782 43.8245 188.782 46.025C188.782 48.2255 190.566 50.0094 192.766 50.0094Z" fill="#58555D"/>
<path d="M217.738 62.9149C218.72 60.9452 217.12 58.1554 214.165 56.6838C211.211 55.2121 208.02 55.6158 207.039 57.5855C206.058 59.5552 207.658 62.345 210.612 63.8167C213.567 65.2883 216.757 64.8846 217.738 62.9149Z" fill="#58555D"/>
<path d="M244.721 70.8147L244.24 72.7487L262.065 77.18L262.546 75.246L244.721 70.8147Z" fill="#FFD180"/>
<path d="M241.191 77.948L240.668 79.8699L260.273 85.2007L260.796 83.2789L241.191 77.948Z" fill="#FFD180"/>
<path d="M167.635 21.3468L166.149 22.6715L180.429 38.6867L181.915 37.3619L167.635 21.3468Z" fill="#FFD180"/>
<path d="M157.676 27.4469L156.527 29.0742L177.932 44.1876L179.081 42.5603L157.676 27.4469Z" fill="#FFD180"/>
<path opacity="0.1" d="M178.386 109.717C178.386 109.717 177.354 142.857 159.931 137.046C142.507 131.234 162.328 110.055 162.328 110.055C162.328 110.055 164.379 101.856 160.621 99.4634" fill="black"/>
<path opacity="0.1" d="M193.695 116.526C193.695 116.526 166.122 134.941 180.274 146.648C194.427 158.355 201.907 130.329 201.907 130.329C201.907 130.329 207.778 124.249 211.796 126.171" fill="black"/>
<path d="M177.302 108.237C177.302 108.237 176.27 141.378 158.846 135.566C141.423 129.754 161.243 108.575 161.243 108.575C161.243 108.575 163.295 100.376 159.537 97.9838" fill="#FFD180"/>
<path d="M195.386 115.956C195.386 115.956 167.813 134.371 181.966 146.078C196.118 157.785 203.598 129.759 203.598 129.759C203.598 129.759 209.469 123.679 213.488 125.601" fill="#FFD180"/>
<path opacity="0.5" d="M156.403 127.381L153.782 132.642L154.063 132.782L156.684 127.521L156.403 127.381Z" fill="#58555D"/>
<path opacity="0.5" d="M160.908 129.625L158.287 134.886L158.569 135.027L161.19 129.765L160.908 129.625Z" fill="#58555D"/>
<path opacity="0.5" d="M159.299 126.729L155.631 134.093L155.912 134.233L159.581 126.869L159.299 126.729Z" fill="#58555D"/>
<path opacity="0.5" d="M186.25 140.842L183.629 146.103L183.911 146.243L186.532 140.982L186.25 140.842Z" fill="#58555D"/>
<path opacity="0.5" d="M190.756 143.086L188.135 148.347L188.416 148.488L191.037 143.226L190.756 143.086Z" fill="#58555D"/>
<path opacity="0.5" d="M189.146 140.19L185.478 147.554L185.76 147.694L189.428 140.33L189.146 140.19Z" fill="#58555D"/>
<path opacity="0.1" d="M196.582 80.8509C191.911 78.528 187.449 75.8084 183.243 72.7221C169.992 62.9803 162.858 51.5762 162.603 51.1582L164.658 48.5864C164.717 48.684 172.673 60.684 185.425 70.0231C197.163 78.619 219.574 88.9558 248.187 87.7554L248.332 91.219C227.565 92.0903 208.744 86.9085 196.582 80.8509Z" fill="black"/>
<path d="M196.272 83.0659L196.211 82.8833C196.527 82.824 196.826 82.6924 197.083 82.4987C197.34 82.3051 197.549 82.0546 197.693 81.7669C197.837 81.4792 197.913 81.1621 197.914 80.8403C197.915 80.5185 197.842 80.2007 197.7 79.9119L197.875 79.8311C198.028 80.1444 198.107 80.4887 198.107 80.8376C198.106 81.1864 198.025 81.5304 197.87 81.8429C197.715 82.1555 197.491 82.4284 197.214 82.6404C196.937 82.8524 196.615 82.998 196.272 83.0659Z" fill="#4D8AF0"/>
<path opacity="0.1" d="M196.272 83.0659L196.211 82.8833C196.527 82.824 196.826 82.6924 197.083 82.4987C197.34 82.3051 197.549 82.0546 197.693 81.7669C197.837 81.4792 197.913 81.1621 197.914 80.8403C197.915 80.5185 197.842 80.2007 197.7 79.9119L197.875 79.8311C198.028 80.1444 198.107 80.4887 198.107 80.8376C198.106 81.1864 198.025 81.5304 197.87 81.8429C197.715 82.1555 197.491 82.4284 197.214 82.6404C196.937 82.8524 196.615 82.998 196.272 83.0659Z" fill="black"/>
<path d="M248.53 87.0658C219.917 88.2661 197.506 77.9293 185.768 69.3334C173.016 59.9943 165.061 47.9943 165.001 47.8967L162.042 49.7026C162.297 50.1207 170.335 62.2906 183.587 72.0324C187.792 75.1187 192.255 77.8384 196.926 80.1612C209.087 86.2189 227.909 91.4006 248.676 90.5293L248.53 87.0658ZM197.616 80.2162C197.547 80.1823 197.491 80.1288 197.453 80.0627C197.415 79.9966 197.398 79.9207 197.403 79.8447C197.408 79.7687 197.436 79.696 197.483 79.6358C197.529 79.5755 197.593 79.5304 197.665 79.5062C197.737 79.482 197.815 79.4798 197.888 79.4998C197.962 79.5198 198.028 79.5612 198.078 79.6187C198.128 79.6761 198.16 79.7471 198.169 79.8227C198.179 79.8983 198.166 79.975 198.132 80.0432C198.11 80.0885 198.078 80.1289 198.04 80.1621C198.002 80.1953 197.958 80.2206 197.91 80.2367C197.862 80.2528 197.811 80.2592 197.761 80.2557C197.71 80.2522 197.661 80.2388 197.616 80.2162Z" fill="#F55F44"/>
<path opacity="0.1" d="M191.763 83.3258C191.308 84.2402 191.234 85.2981 191.559 86.2668C191.883 87.2354 192.579 88.0354 193.494 88.4909C194.408 88.9464 195.466 89.0199 196.435 88.6954C197.403 88.3709 198.204 87.6749 198.659 86.7605C199.114 85.8461 199.188 84.7882 198.863 83.8196C198.539 82.851 197.843 82.0509 196.929 81.5954C196.014 81.14 194.956 81.0664 193.988 81.3909C193.019 81.7154 192.219 82.4115 191.763 83.3258ZM196.07 83.3193C195.956 83.2627 195.862 83.1737 195.799 83.0634C195.736 82.9532 195.707 82.8268 195.716 82.7001C195.724 82.5735 195.771 82.4523 195.848 82.3518C195.926 82.2514 196.032 82.1763 196.152 82.136C196.273 82.0956 196.402 82.0919 196.525 82.1252C196.647 82.1586 196.757 82.2275 196.84 82.3233C196.924 82.4191 196.977 82.5375 196.993 82.6634C197.009 82.7894 196.987 82.9172 196.931 83.0309C196.855 83.1833 196.721 83.2993 196.56 83.3534C196.399 83.4075 196.222 83.3952 196.07 83.3193L196.07 83.3193Z" fill="url(#paint0_linear)"/>
<path d="M192.108 83.4975C191.698 84.3205 191.632 85.2726 191.924 86.1444C192.216 87.0161 192.843 87.7362 193.666 88.1461C194.489 88.556 195.441 88.6222 196.313 88.3302C197.184 88.0381 197.904 87.4117 198.314 86.5887C198.724 85.7658 198.79 84.8137 198.498 83.9419C198.206 83.0701 197.58 82.3501 196.757 81.9402C195.934 81.5302 194.982 81.464 194.11 81.7561C193.238 82.0482 192.518 82.6746 192.108 83.4975ZM195.984 83.4917C195.882 83.4407 195.797 83.3606 195.74 83.2614C195.683 83.1622 195.657 83.0484 195.665 82.9344C195.673 82.8204 195.715 82.7113 195.785 82.6209C195.855 82.5306 195.95 82.463 196.058 82.4267C196.167 82.3904 196.283 82.387 196.393 82.417C196.504 82.447 196.603 82.5091 196.678 82.5953C196.753 82.6815 196.8 82.788 196.815 82.9014C196.829 83.0147 196.81 83.1298 196.759 83.2321C196.725 83.3 196.678 83.3606 196.621 83.4104C196.564 83.4602 196.497 83.4982 196.425 83.5223C196.353 83.5464 196.277 83.5561 196.202 83.5509C196.126 83.5456 196.052 83.5255 195.984 83.4917Z" fill="#4D8AF0"/>
<path d="M196.15 83.0049C195.998 82.691 195.921 82.3463 195.923 81.9974C195.925 81.6486 196.008 81.305 196.164 80.9931C196.32 80.6812 196.546 80.4094 196.824 80.1986C197.102 79.9877 197.425 79.8436 197.767 79.7772L197.808 79.9654C197.492 80.0262 197.194 80.1592 196.938 80.3541C196.682 80.5489 196.474 80.8004 196.332 81.0888C196.189 81.3772 196.115 81.6946 196.115 82.0164C196.115 82.3382 196.19 82.6556 196.333 82.9438L196.15 83.0049Z" fill="#4D8AF0"/>
<path d="M243.445 85.8312C182.07 90.116 167.597 50.6338 167.597 50.6338L243.445 85.8312Z" fill="#FFD180"/>
<path d="M83.2983 222.762H75.2561V290.754C75.2561 290.754 127.165 307.569 177.612 290.754V222.762H83.2983Z" fill="#3F3D56"/>
<path d="M125.703 230.804C153.564 230.804 176.149 227.367 176.149 223.127C176.149 218.888 153.564 215.451 125.703 215.451C97.8418 215.451 75.2561 218.888 75.2561 223.127C75.2561 227.367 97.8418 230.804 125.703 230.804Z" fill="#3F3D56"/>
<path opacity="0.1" d="M125.703 230.804C153.564 230.804 176.149 227.367 176.149 223.127C176.149 218.888 153.564 215.451 125.703 215.451C97.8418 215.451 75.2561 218.888 75.2561 223.127C75.2561 227.367 97.8418 230.804 125.703 230.804Z" fill="black"/>
<path d="M184.344 141.526C171.618 188.569 128.028 217.703 128.028 217.703C128.028 217.703 105.072 170.567 117.798 123.525C130.524 76.4826 174.113 47.3481 174.113 47.3481C174.113 47.3481 197.07 94.4843 184.344 141.526Z" fill="#3F3D56"/>
<path d="M68.5723 141.526C81.2984 188.569 124.888 217.703 124.888 217.703C124.888 217.703 147.844 170.567 135.118 123.525C122.392 76.4826 78.8028 47.3481 78.8028 47.3481C78.8028 47.3481 55.8463 94.4842 68.5723 141.526Z" fill="#504CFF"/>
<path d="M87.2723 131.417C122.193 165.41 126.458 217.665 126.458 217.665C126.458 217.665 74.1061 214.806 39.1857 180.813C4.26528 146.82 0 94.5652 0 94.5652C0 94.5652 52.3519 97.4236 87.2723 131.417Z" fill="#3F3D56"/>
<path d="M165.644 131.417C130.723 165.41 126.458 217.665 126.458 217.665C126.458 217.665 178.81 214.806 213.73 180.813C248.651 146.82 252.916 94.5652 252.916 94.5652C252.916 94.5652 200.564 97.4236 165.644 131.417Z" fill="#3F3D56"/>
<path d="M126.434 63.3823C135.317 63.3823 142.518 56.1812 142.518 47.2981C142.518 38.4151 135.317 31.214 126.434 31.214C117.551 31.214 110.349 38.4151 110.349 47.2981C110.349 56.1812 117.551 63.3823 126.434 63.3823Z" fill="#504CFF"/>
<g opacity="0.5">
<path opacity="0.5" d="M272.791 317.998C292.787 317.998 308.998 301.787 308.998 281.791C308.998 261.795 292.787 245.584 272.791 245.584C252.794 245.584 236.583 261.795 236.583 281.791C236.583 301.787 252.794 317.998 272.791 317.998Z" fill="url(#paint1_linear)"/>
</g>
<path d="M272.79 315.687C291.511 315.687 306.687 300.511 306.687 281.791C306.687 263.071 291.511 247.896 272.79 247.896C254.07 247.896 238.894 263.071 238.894 281.791C238.894 300.511 254.07 315.687 272.79 315.687Z" fill="#F55F44"/>
<g opacity="0.5">
<path opacity="0.5" d="M174.442 304.923C169.324 305.375 163.696 302.833 162.591 297.76C161.953 294.83 162.963 291.965 163.939 289.195C165.01 286.159 165.934 283.537 164.598 281.377C163.99 280.394 162.926 279.649 161.868 278.99C160.489 278.132 159.009 277.339 157.578 276.573C155.105 275.249 152.548 273.879 150.275 272.063C145.807 268.494 143.548 263.732 144.231 259.326C144.821 255.519 147.396 252.603 149.885 249.782C152.438 246.89 154.85 244.157 154.793 240.813C154.717 236.265 150.068 232.998 145.966 230.117L145.326 229.667C140.32 226.136 135.512 220.009 138.435 214.361C139.456 212.389 141.159 211.123 142.805 209.899C143.915 209.149 144.927 208.265 145.819 207.265C148.828 203.538 147.292 198.017 146.492 195.816C145.884 194.143 145.089 192.474 144.32 190.86C143.184 188.476 142.01 186.01 141.328 183.35L141.216 182.914C139.572 176.512 139.573 176.273 141.311 170.13L141.527 169.363L144.123 170.095L143.905 170.864C142.333 176.424 142.333 176.424 143.827 182.244L143.939 182.68C144.557 185.087 145.624 187.328 146.754 189.7C147.55 191.372 148.374 193.101 149.027 194.895C151.048 200.455 150.643 205.582 147.917 208.959C146.886 210.138 145.708 211.182 144.414 212.063C142.948 213.152 141.564 214.181 140.83 215.6C138.557 219.993 143.563 225.124 146.88 227.463L147.515 227.911C151.915 231.001 157.39 234.847 157.489 240.767C157.563 245.157 154.687 248.415 151.907 251.566C149.571 254.212 147.365 256.712 146.896 259.74C146.268 263.789 149.099 267.672 151.958 269.957C154.038 271.619 156.376 272.871 158.851 274.196C160.32 274.983 161.84 275.796 163.293 276.701C164.63 277.533 165.991 278.504 166.891 279.959C168.906 283.216 167.674 286.711 166.482 290.092C165.592 292.618 164.75 295.004 165.226 297.186C166.084 301.129 171.256 302.923 175.359 302.068C178.718 301.368 181.673 299.523 184.802 297.571C185.814 296.94 186.86 296.287 187.914 295.681C193.666 292.377 198.878 291.57 202.987 293.346C204.281 293.955 205.505 294.702 206.639 295.574C207.522 296.246 208.46 296.843 209.441 297.36C211.675 298.335 214.194 298.432 216.496 297.633C218.798 296.833 220.714 295.196 221.863 293.047C222.06 292.635 222.239 292.193 222.427 291.725C223.025 290.239 223.704 288.555 225.253 287.499C226.875 286.393 228.873 286.409 230.332 286.421L245.407 286.549L245.384 289.245L230.31 289.117C228.879 289.106 227.627 289.143 226.772 289.726C225.899 290.321 225.427 291.492 224.928 292.732C224.732 293.219 224.529 293.723 224.293 294.214C222.833 297.011 220.361 299.145 217.38 300.18C214.4 301.215 211.137 301.073 208.258 299.783C207.141 299.202 206.075 298.528 205.071 297.767C204.091 297.009 203.034 296.357 201.917 295.821C197.751 294.019 192.733 296.022 189.257 298.019C188.246 298.6 187.221 299.24 186.229 299.858C183.038 301.85 179.738 303.909 175.909 304.707C175.425 304.808 174.935 304.88 174.442 304.923Z" fill="url(#paint2_linear)"/>
</g>
<path d="M175.108 303.704C169.99 304.157 164.362 301.614 163.257 296.541C162.619 293.611 163.628 290.746 164.605 287.976C165.676 284.94 166.6 282.318 165.264 280.159C164.656 279.175 163.592 278.43 162.534 277.771C161.155 276.913 159.675 276.121 158.244 275.354C155.771 274.03 153.214 272.66 150.941 270.844C146.473 267.275 144.214 262.513 144.897 258.107C145.487 254.3 148.061 251.384 150.551 248.563C153.104 245.671 155.515 242.939 155.459 239.594C155.383 235.046 150.733 231.78 146.631 228.898L145.991 228.448C140.986 224.917 136.178 218.79 139.101 213.142C140.122 211.17 141.824 209.904 143.471 208.68C144.581 207.931 145.593 207.046 146.485 206.046C149.494 202.319 147.958 196.798 147.158 194.597C146.55 192.924 145.755 191.255 144.986 189.641C143.85 187.257 142.675 184.791 141.993 182.131L141.881 181.695C140.237 175.293 140.239 175.054 141.977 168.911L142.193 168.145L144.788 168.876L144.571 169.645C142.999 175.205 142.999 175.205 144.493 181.025L144.605 181.462C145.222 183.868 146.29 186.109 147.42 188.481C148.216 190.153 149.04 191.882 149.692 193.676C151.714 199.237 151.309 204.363 148.582 207.74C147.551 208.92 146.374 209.963 145.079 210.845C143.614 211.933 142.23 212.962 141.496 214.381C139.222 218.774 144.229 223.905 147.545 226.244L148.181 226.692C152.581 229.782 158.055 233.628 158.155 239.549C158.229 243.939 155.353 247.197 152.572 250.347C150.237 252.994 148.031 255.493 147.561 258.521C146.934 262.57 149.765 266.453 152.624 268.738C154.704 270.4 157.042 271.652 159.517 272.977C160.986 273.764 162.505 274.578 163.959 275.482C165.296 276.314 166.657 277.285 167.557 278.74C169.572 281.997 168.34 285.493 167.148 288.873C166.257 291.399 165.416 293.785 165.891 295.967C166.75 299.91 171.922 301.704 176.025 300.849C179.383 300.149 182.339 298.305 185.468 296.352C186.48 295.721 187.526 295.068 188.58 294.462C194.332 291.158 199.544 290.351 203.653 292.127C204.947 292.736 206.171 293.484 207.305 294.356C208.188 295.027 209.125 295.625 210.107 296.142C212.34 297.116 214.859 297.214 217.161 296.414C219.464 295.615 221.38 293.977 222.528 291.828C222.726 291.416 222.904 290.974 223.093 290.506C223.691 289.02 224.37 287.336 225.919 286.28C227.541 285.174 229.539 285.19 230.998 285.203L246.073 285.33L246.05 288.026L230.975 287.899C229.545 287.887 228.293 287.924 227.438 288.507C226.565 289.102 226.093 290.273 225.594 291.513C225.398 292.001 225.195 292.504 224.959 292.995C223.499 295.792 221.026 297.926 218.046 298.961C215.066 299.996 211.803 299.854 208.924 298.564C207.806 297.983 206.74 297.309 205.736 296.548C204.756 295.79 203.699 295.138 202.583 294.602C198.417 292.8 193.399 294.803 189.923 296.8C188.912 297.381 187.887 298.021 186.895 298.64C183.704 300.631 180.403 302.691 176.575 303.488C176.091 303.589 175.601 303.661 175.108 303.704Z" fill="#F55F44"/>
<path opacity="0.2" d="M276.478 257.878C276.478 257.878 295.375 259.495 298.199 287.087" stroke="black" stroke-miterlimit="10"/>
<path opacity="0.2" d="M246.571 293.581C246.571 293.581 237.631 271.17 266.824 255.831" stroke="black" stroke-miterlimit="10"/>
<path opacity="0.2" d="M253.804 287.915C253.804 287.915 249.684 276.292 258.7 268.922" stroke="black" stroke-miterlimit="10"/>
<path opacity="0.2" d="M270.978 267.837C270.978 267.837 278.81 273.332 276.329 289.019" stroke="black" stroke-miterlimit="10"/>
<path opacity="0.2" d="M285.455 252.252C285.455 252.252 298.343 258.073 303.277 278.905" stroke="black" stroke-miterlimit="10"/>
<path opacity="0.2" d="M266.654 253.912C266.654 253.912 274.124 250.932 279.485 254.712" stroke="black" stroke-miterlimit="10"/>
<path opacity="0.2" d="M261.242 297.698C261.242 297.698 268.477 305.179 294.239 294.783" stroke="black" stroke-miterlimit="10"/>
<path opacity="0.2" d="M252.627 257.085C252.627 257.085 242.878 264.906 243.015 279.588" stroke="black" stroke-miterlimit="10"/>
<path opacity="0.2" d="M251.559 293.14C251.559 293.14 249.664 297.948 254.641 301.762" stroke="black" stroke-miterlimit="10"/>
<path opacity="0.2" d="M297.23 297.999C297.23 297.999 294.59 307.513 289.117 306.836" stroke="black" stroke-miterlimit="10"/>
<path opacity="0.2" d="M281.078 272.745C281.078 272.745 284.938 277.044 283.111 282.619" stroke="black" stroke-miterlimit="10"/>
<path opacity="0.2" d="M261.928 274.824C261.928 274.824 259.017 281.268 261.376 286.086" stroke="black" stroke-miterlimit="10"/>
<path opacity="0.2" d="M266.148 274.451C266.148 274.451 269.478 281.504 267.131 285.578" stroke="black" stroke-miterlimit="10"/>
</g>
<defs>
<linearGradient id="paint0_linear" x1="193.494" y1="88.4909" x2="196.928" y2="81.5954" gradientUnits="userSpaceOnUse">
<stop stop-color="white"/>
<stop offset="1"/>
</linearGradient>
<linearGradient id="paint1_linear" x1="275.976" y1="317.858" x2="269.604" y2="245.725" gradientUnits="userSpaceOnUse">
<stop stop-color="#808080" stop-opacity="0.25"/>
<stop offset="0.53514" stop-color="#808080" stop-opacity="0.12"/>
<stop offset="1" stop-color="#808080" stop-opacity="0.1"/>
</linearGradient>
<linearGradient id="paint2_linear" x1="132818" y1="144288" x2="128545" y2="95914.5" gradientUnits="userSpaceOnUse">
<stop stop-color="#808080" stop-opacity="0.25"/>
<stop offset="0.53514" stop-color="#808080" stop-opacity="0.12"/>
<stop offset="1" stop-color="#808080" stop-opacity="0.1"/>
</linearGradient>
<clipPath id="clip0">
<rect width="309" height="318" fill="white"/>
</clipPath>
</defs>
</svg>
